<?xml version="1.0" encoding="UTF-8" standalone="no"?>
<!-- Created with Inkscape (http://www.inkscape.org/) -->

<svg
   xmlns:dc="http://purl.org/dc/elements/1.1/"
   xmlns:cc="http://creativecommons.org/ns#"
   xmlns:rdf="http://www.w3.org/1999/02/22-rdf-syntax-ns#"
   xmlns:svg="http://www.w3.org/2000/svg"
   xmlns="http://www.w3.org/2000/svg"
   xmlns:sodipodi="http://sodipodi.sourceforge.net/DTD/sodipodi-0.dtd"
   xmlns:inkscape="http://www.inkscape.org/namespaces/inkscape"
   width="1920"
   height="1080"
   viewBox="0 0 507.99998 285.75001"
   version="1.1"
   id="svg8"
   inkscape:version="0.92.5 (2060ec1f9f, 2020-04-08)"
   sodipodi:docname="slides_bg.svg"
   inkscape:export-filename="/home/hingo/hacking/presentations/gh-pages/Froscon 2020 - 5 kinds of NoSQL/images/slides_bg.png"
   inkscape:export-xdpi="96"
   inkscape:export-ydpi="96">
  <defs
     id="defs2" />
  <sodipodi:namedview
     id="base"
     pagecolor="#ffffff"
     bordercolor="#666666"
     borderopacity="1.0"
     inkscape:pageopacity="0.0"
     inkscape:pageshadow="2"
     inkscape:zoom="1"
     inkscape:cx="637.141"
     inkscape:cy="560"
     inkscape:document-units="mm"
     inkscape:current-layer="layer1"
     showgrid="false"
     units="px"
     inkscape:window-width="3840"
     inkscape:window-height="2017"
     inkscape:window-x="0"
     inkscape:window-y="0"
     inkscape:window-maximized="1" />
  <metadata
     id="metadata5">
    <rdf:RDF>
      <cc:Work
         rdf:about="">
        <dc:format>image/svg+xml</dc:format>
        <dc:type
           rdf:resource="http://purl.org/dc/dcmitype/StillImage" />
        <dc:title />
      </cc:Work>
    </rdf:RDF>
  </metadata>
  <g
     inkscape:label="Layer 1"
     inkscape:groupmode="layer"
     id="layer1"
     transform="translate(0,-11.249983)"
     style="opacity:1">
    <text
       xml:space="preserve"
       style="font-style:normal;font-variant:normal;font-weight:normal;font-stretch:normal;font-size:15.08585358px;line-height:1.25;font-family:FreeSerif;-inkscape-font-specification:FreeSerif;letter-spacing:0px;word-spacing:0px;opacity:1;fill:#000000;fill-opacity:0.36842107;stroke:none;stroke-width:0.37714636"
       x="400.31998"
       y="311.41229"
       id="text3715"
       transform="scale(1.0867,0.92021718)"><tspan
         sodipodi:role="line"
         id="tspan3713"
         x="400.31998"
         y="311.41229"
         style="font-style:normal;font-variant:normal;font-weight:normal;font-stretch:normal;font-family:FreeSerif;-inkscape-font-specification:FreeSerif;fill:#000000;fill-opacity:0.36842107;stroke-width:0.37714636">@h_ingo</tspan></text>
    <g
       id="g3788"
       transform="matrix(0.06805161,0,0,0.06805161,414.5004,274.32557)"
       style="opacity:0.31600001;fill:#000000;fill-opacity:0.36842107">
      <path
         id="path3786"
         d="m 256,25.450026 c -9.41916,4.177241 -19.54155,7.000461 -30.16584,8.270207 C 236.6785,27.219805 245.00583,16.926993 248.92744,4.6630769 238.77976,10.681263 227.53932,15.052338 215.57599,17.408298 205.99483,7.2006971 192.34506,0.822 177.2392,0.822 c -29.0066,0 -52.52312,23.515593 -52.52312,52.520312 0,4.116376 0.46538,8.125066 1.36057,11.968952 C 82.425838,63.121045 43.725725,42.211429 17.821398,10.435929 c -4.520897,7.757065 -7.110955,16.779194 -7.110955,26.40436 0,18.221237 9.273082,34.297202 23.365771,43.715425 -8.610118,-0.27249 -16.708029,-2.635005 -23.789956,-6.568785 -0.0037,0.219116 -0.0037,0.439168 -0.0037,0.660156 0,25.447365 18.104188,46.675355 42.131051,51.499645 -4.407594,1.20045 -9.047412,1.84188 -13.83799,1.84188 -3.384118,0 -6.674596,-0.32867 -9.8808,-0.94201 6.683024,20.86654 26.079432,36.05106 49.062219,36.47525 -17.974966,14.08613 -40.621588,22.48275 -65.228077,22.48275 -4.2390434,0 -8.4200303,-0.24814 -12.528915,-0.73319 23.243103,14.90173 50.850726,23.59612 80.510919,23.59612 96.605615,0 149.433065,-80.03055 149.433065,-149.43493 0,-2.277303 -0.0506,-4.542434 -0.1517,-6.794455 C 240.05326,45.233164 248.95834,35.982554 256,25.450026"
         inkscape:connector-curvature="0"
         style="fill:#000000;fill-opacity:0.36842107" />
    </g>
  </g>
</svg>
