<?xml version="1.0" encoding="UTF-8" standalone="no"?>
<svg xmlns:rdf="http://www.w3.org/1999/02/22-rdf-syntax-ns#" xmlns="http://www.w3.org/2000/svg" height="1249.7" viewBox="0 0 416 1249.67" width="416" version="1.1" xmlns:cc="http://creativecommons.org/ns#" xmlns:dc="http://purl.org/dc/elements/1.1/">
<g transform="translate(-324 585.92)">
<g>
<path d="m475 153.75 20 464.55-55 45.446h235l-50-45.446 50-469.6z" fill-rule="evenodd" fill="#b3b3b3"/>
<path d="m720 133.75-20 60h-30v-60z" fill-rule="evenodd" fill="#ddb476"/>
<path d="m490-386.25c-0.25098 0-0.49797 0.0159-0.74805 0.0195a165 165 0 0 0 -0.25195 -0.01 165 165 0 0 0 -0.60742 0.0312c-0.64125 0.0201-1.2793 0.0519-1.9141 0.0957a165 165 0 0 0 -162.48 164.86 165 165 0 0 0 116 157.37v87.629 131.27h300v-131.27-200-160c0-27.7-22.3-50-50-50h-200zm-50 92.082v117.92 27.975a87.931 87.929 0 0 1 -38.93 -72.97 87.931 87.929 0 0 1 38.93 -72.92z" fill="#4d4d4d"/>
<ellipse rx="87.481" ry="89.696" cy="-489.55" cx="573.85" fill="#ddb476"/>
</g>
<g stroke="#000" stroke-linecap="round" fill="none">
<g stroke-width="6.8">
<path d="m581.6-541.87-58.551-24.916"/>
<path d="m578.73-558.17-40.817-16.31"/>
<path d="m578.53-574.15-24.41-8.3508"/>
</g>
<g stroke-width="6.8">
<path d="m540.54-510.73h21.335"/>
<path d="m602.54-510.73h21.335"/>
<path d="m585.21-500.79v25.101"/>
<path d="m577.4-446.73h14.275"/>
</g>
</g>
<path d="m518-401.25h115l-60 145z" fill-rule="evenodd" fill="#ececec"/>
<g fill-rule="evenodd">
<path d="m546.36-401.25h55v35l-27.357-14.78-27.643 14.78z"/>
<path d="m645-401.25h-20l-15 70 40-10z"/>
<path d="m505-401.25h20l15 70-40-10z"/>
</g>
<path d="m580 193.75v440" stroke="#000" stroke-width="17.4" fill="none"/>
<g>
<rect height="285" width="75" y="-151.25" x="445" fill="#b3b3b3"/>
<path d="m490-141.25-30 55h260l-40-55z" fill-rule="evenodd"/>
<path d="m494.46 618.75-54.461 45h235l-49.51-45h-131.03z"/>
<path d="m573-206.25s-0.38292 3.3779 0 5c1.7125 7.2542 4.7295 14.73 10 20 5.2705 5.2705 20 10 20 10v48.084a15 5 0 0 0 -12.293 4.916 15 5 0 0 0 15 5 15 5 0 0 0 15 -5 15 5 0 0 0 -12.71 -4.94v-48.064s14.73-4.7295 20-10c5.2705-5.2705 8.2875-12.746 10-20 0.38292-1.6221 0-5 0-5h-65z" fill-rule="evenodd" fill="#fff"/>
<path d="m574.41-196.25c1.8194 5.5683 4.5334 10.94 8.5938 15 5.2705 5.2705 20 10 20 10h5s14.73-4.7295 20-10c4.0604-4.0604 6.7744-9.4317 8.5938-15h-62.188z" fill="#984040"/>
<path d="m637-192.25s-0.38292 3.3779 0 5c1.7125 7.2542 4.7295 14.73 10 20 5.2705 5.2705 20 10 20 10v48.084a15 5 0 0 0 -12.293 4.916 15 5 0 0 0 15 5 15 5 0 0 0 15 -5 15 5 0 0 0 -12.71 -4.94v-48.064s14.73-4.7295 20-10c5.2705-5.2705 8.2875-12.746 10-20 0.38292-1.6221 0-5 0-5h-65z" fill-rule="evenodd" fill="#fff"/>
<path d="m638.41-182.25c1.8194 5.5683 4.5334 10.94 8.5938 15 5.2705 5.2705 20 10 20 10h5s14.73-4.7295 20-10c4.0604-4.0604 6.7744-9.4317 8.5938-15h-62.188z" fill="#984040"/>
<path d="m515-259.25s-13.033 25.897-15 40c-4.1579 29.812 7.3613 90 7.3613 90 0 4.1421 7.8971 7.5 17.639 7.5 9.7416-0.00005 15-3.3579 15-7.5 0 0 13.735-60.047 10-90-1.762-14.131-15-40-15-40z" fill-rule="evenodd" fill="#fff"/>
<path d="m501.98-164.25c2.3852 19.309 5.3809 35 5.3809 35 0 4.1421 7.8971 7.5 17.639 7.5 9.7416-0.00005 15-3.3579 15-7.5 0 0 3.5778-15.683 6.5859-35h-44.605z" fill="#984040"/>
</g>
</g>
</svg>
